# AST/ASF file generated using VICON BodyLanguage
# -----------------------------------------------
:version 1.10
:name VICON
:units
  mass 1.0
  length 0.45
  angle deg
:documentation
   .ast/.asf automatically generated from VICON data using
   VICON BodyBuilder and BodyLanguage model FoxedUp or BRILLIANT.MOD
:root
   order TX TY TZ RX RY RZ
   axis XYZ
   position 0 0 0  
   orientation 0 0 0 
:bonedata
  begin
     id 1 
     name lhipjoint
     direction 0.716712 -0.619771 0.3197 
     length 2.67249 
     axis 0 0 0  XYZ
  end
  begin
     id 2 
     name lfemur
     direction 0.34202 -0.939693 0  
     length 7.04375  
     axis 0 0 20  XYZ
    dof rx ry rz
    limits (-160.0 20.0)
           (-70.0 70.0)
           (-60.0 70.0)
  end
  begin
     id 3 
     name ltibia
     direction 0.34202 -0.939693 0   
     length 8.12233   
     axis 0 0 20   XYZ
    dof rx
    limits (-10.0 170.0)
  end
  begin
     id 4 
     name lfoot
     direction 0.0986665 -0.271084 0.957485   
     length 1.97802   
     axis -90 7.62852e-016 20   XYZ
    dof rx rz
    limits (-45.0 90.0)
           (-70.0 20.0)
  end
  begin
     id 5 
     name ltoes
     direction 1.53569e-011 -4.21962e-011 1   
     length 0.991074   
     axis -90 7.62852e-016 20   XYZ
    dof rx
    limits (-90.0 20.0)
  end
  begin
     id 6 
     name rhipjoint
     direction -0.684484 -0.647907 0.334213   
     length 2.55643  
     axis 0 0 0  XYZ 
  end
  begin
     id 7 
     name rfemur
     direction -0.34202 -0.939693 0   
     length 7.00452   
     axis 0 0 -20   XYZ
    dof rx ry rz
    limits (-160.0 20.0)
           (-70.0 70.0)
           (-70.0 60.0)
  end
  begin
     id 8 
     name rtibia
     direction -0.34202 -0.939693 0   
     length 7.98545   
     axis 0 0 -20   XYZ
    dof rx
    limits (-10.0 170.0)
 end
 begin
     id 9 
     name rfoot
     direction -0.0877828 -0.241181 0.966502   
     length 2.17223  
     axis -90 -7.62852e-016 -20   XYZ
    dof rx rz
    limits (-45.0 90.0)
           (-20.0 70.0)
  end
  begin
     id 10 
     name rtoes
     direction -1.53586e-011 -4.22014e-011 1   
     length 1.0886   
     axis -90 -7.62852e-016 -20   XYZ
    dof rx
    limits (-90.0 20.0)
  end
  begin
     id 11 
     name lowerback
     direction -0.0470064 0.989573 -0.136149   
     length 2.05976   
     axis 0 0 0   XYZ
    dof rx ry rz
    limits (-20.0 45.0)
           (-30.0 30.0)
           (-30.0 30.0)
  end
  begin
     id 12 
     name upperback
     direction -0.00532895 0.998093 0.0615045   
     length 2.02286   
     axis 0 0 0   XYZ
    dof rx ry rz
    limits (-20.0 45.0)
           (-30.0 30.0)
           (-30.0 30.0)
  end
  begin
     id 13 
     name thorax
     direction 0.0171558 0.991502 0.128954   
     length 2.09196   
     axis 0 0 0   XYZ
    dof rx ry rz
    limits (-20.0 45.0)
           (-30.0 30.0)
           (-30.0 30.0)
  end
  begin
     id 14 
     name lowerneck
     direction 0.0221176 0.995362 0.0936194   
     length 1.70234   
     axis 0 0 0   XYZ
    dof rx ry rz
    limits (-20.0 45.0)
           (-30.0 30.0)
           (-30.0 30.0)
  end
  begin
     id 15 
     name upperneck
     direction -0.0237973 0.998511 -0.0490877   
     length 1.66068   
     axis 0 0 0   XYZ
    dof rx ry rz
    limits (-20.0 45.0)
           (-30.0 30.0)
           (-30.0 30.0)
  end
  begin
     id 16
     name head
     direction -0.00980141 0.999531 -0.0289958  
     length 1.82618  
     axis 0 0 0   XYZ
    dof rx ry rz
    limits (-20.0 45.0)
           (-30.0 30.0)
           (-30.0 30.0)
  end
  begin
     id 17 
     name lclavicle
     direction 0.894784 0.445864 -0.0238113  
     length 3.37997  
     axis 0 0 0   XYZ
    dof ry rz
    limits (-20.0 10.0)
           (0.0 20.0)
  end
  begin
     id 18 
     name lhumerus
     direction 1 -4.48975e-011 6.49229e-028   
     length 5.79016   
     axis 180 -30 -90   XYZ
    dof rx ry rz
    limits (-60.0 90.0)
           (-90.0 90.0)
           (-90.0 90.0)
  end
  begin
     id 19
     name lradius
     direction 1 -4.48959e-011 2.80427e-027   
     length 3.48314   
     axis 180 -30 -90   XYZ
    dof rx
    limits (-10.0 170.0)
  end
  begin
     id 20
     name lwrist
     direction 1 -4.48938e-011 5.60449e-029   
     length 1.74157   
     axis 8.48505e-016 90 90   XYZ
    dof ry
    limits (-180.0 0.0)
 end
  begin
     id 21 
     name lhand
     direction 1 -4.49048e-011 1.1209e-028   
     length 0.587065   
     axis -7.15228e-017 90 90   XYZ
    dof rx rz
    limits (-90.0 90.0)
           (-45.0 45.0)
  end
  begin
     id 22 
     name lfingers
     direction 1 -4.49036e-011 2.24179e-028   
     length 0.473307   
     axis -1.43046e-016 90 90   XYZ
    dof rx
    limits (0.0 90.0)
  end
  begin
     id 23
     name lthumb
     direction 0.707107 -6.34878e-011 0.707107   
     length 0.679577   
     axis -90 45 2.85299e-015   XYZ
    dof rx rz
    limits (-45.0 45.0)
           (-45.0 45.0)
  end
  begin
     id 24 
     name rclavicle
     direction -0.952963 0.303049 0.00480459   
     length 3.50503  
     axis 0 0 0   XYZ 
    dof ry rz
    limits (-10.0 20.0)
           (-20.0 0.0)
  end
  begin
     id 25 
     name rhumerus
     direction -1 -4.48973e-011 -1.5431e-027  
     length 5.69822   
     axis 180 30 90   XYZ
    dof rx ry rz
    limits (-90.0 60.0)
           (-90.0 90.0)
           (-90.0 90.0)
  end
  begin
     id 26 
     name rradius
     direction -1 -4.4896e-011 2.11972e-027   
     length 3.58077   
     axis 180 30 90   XYZ
    dof rx
    limits (-10.0 170.0)
  end
  begin
     id 27 
     name rwrist
     direction -1 -4.48943e-011 5.60449e-029   
     length 1.79039   
     axis 8.48505e-016 -90 -90   XYZ
    dof ry
    limits (-180.0 0.0)
  end
  begin
     id 28
     name rhand
     direction -1 -4.49007e-011 1.1209e-028   
     length 0.620156   
     axis -7.15228e-017 -90 -90   XYZ
    dof rx rz
    limits (-90.0 90.0)
           (-45.0 45.0)
  end
  begin
     id 29
     name rfingers
     direction -1 -4.49025e-011 2.24179e-028   
     length 0.499985   
     axis -1.43046e-016 -90 -90   XYZ
    dof rx
    limits (0.0 90.0)
  end
  begin
     id 30
     name rthumb
     direction -0.707107 -6.3481e-011 0.707107   
     length 0.717882   
     axis -90 -45 -2.85299e-015   XYZ
    dof rx rz
    limits (-45.0 45.0)
           (-45.0 45.0)
  end
:hierarchy
  begin
    root lhipjoint rhipjoint lowerback
    lhipjoint lfemur
    lfemur ltibia
    ltibia lfoot
    lfoot ltoes
    rhipjoint rfemur
    rfemur rtibia
    rtibia rfoot
    rfoot rtoes
    lowerback upperback
    upperback thorax
    thorax lowerneck lclavicle rclavicle
    lowerneck upperneck
    upperneck head
    lclavicle lhumerus
    lhumerus lradius
    lradius lwrist
    lwrist lhand lthumb
    lhand lfingers
    rclavicle rhumerus
    rhumerus rradius
    rradius rwrist
    rwrist rhand rthumb
    rhand rfingers
  end

#!OML:ASF H:\Terrain\Patient Classification 1\PaulMetrics\March17Take4\PaulMetrics.ASF
:FULLY-SPECIFIED
:DEGREES
701
root 11.5824 16.8991 -23.8333 -171.241 -19.4606 -177.385
lowerback -2.74925 2.10779 -3.65156
upperback -4.09943 2.61894 -1.51253
thorax -2.77761 1.30506 0.494586
lowerneck -4.55014 11.3112 8.14006
upperneck 13.099 15.2432 -7.33277
head 5.9005 7.26751 -2.4795
rclavicle 5.52373e-014 -4.29375e-014
rhumerus -47.3251 14.4369 -90.9916
rradius 55.8372
rwrist -8.02706
rhand -17.3618 -31.5824
rfingers 7.12502
rthumb 8.88625 -61.3753
lclavicle 5.52373e-014 -4.29375e-014
lhumerus -47.672 -12.1775 85.7977
lradius 34.7469
lwrist 17.7214
lhand -9.91874 -16.2622
lfingers 7.12502
lthumb 16.0619 13.0921
rfemur 7.41545 -0.473855 27.9852
rtibia 18.2265
rfoot -12.5414 -6.05803
rtoes -15.1094
lfemur -38.255 1.0179 -24.7152
ltibia 28.9509
lfoot -8.06432 16.8952
ltoes 15.7105
702
root 11.5197 16.8818 -23.9642 -170.982 -19.5973 -178.317
lowerback -2.66903 2.07056 -4.56717
upperback -4.16784 2.54025 -1.82511
thorax -2.9242 1.28019 0.677161
lowerneck -4.24721 11.4654 8.12195
upperneck 12.858 15.4512 -7.26665
head 5.7838 7.38548 -2.45979
rclavicle -2.31833e-014 1.51076e-014
rhumerus -47.588 14.0615 -91.2418
rradius 55.5783
rwrist -8.28109
rhand -16.1555 -31.5434
rfingers 7.12502
rthumb 10.0501 -61.2834
lclavicle -2.31833e-014 1.51076e-014
lhumerus -47.6333 -12.3622 85.735
lradius 34.8013
lwrist 17.9606
lhand -10.2635 -17.4475
lfingers 7.12502
lthumb 15.7299 11.9333
rfemur 6.7154 -1.33052 26.6382
rtibia 20.5156
rfoot -12.2812 -4.91063
rtoes -17.1174
lfemur -38.0342 1.62798 -26.2854
ltibia 29.4548
lfoot -5.73145 16.1242
ltoes 15.0711
703
root 11.4488 16.8868 -24.0996 -170.745 -19.8462 -179.097
lowerback -2.7251 2.00054 -5.31072
upperback -4.15936 2.43341 -2.05918
thorax -2.9071 1.23647 0.851574
lowerneck -4.35285 11.6116 8.03438
upperneck 12.866 15.6451 -7.19142
head 5.8064 7.4782 -2.39901
rclavicle 1.01877e-014 -1.98785e-014
rhumerus -47.7658 13.9155 -91.4651
rradius 55.0221
rwrist -8.34818
rhand -15.4785 -31.3474
rfingers 7.12502
rthumb 10.7032 -61.0547
lclavicle 1.01877e-014 -1.98785e-014
lhumerus -47.415 -12.3978 85.6125
lradius 34.8333
lwrist 17.7995
lhand -10.7421 -18.4424
lfingers 7.12502
lthumb 15.269 10.974
rfemur 5.71546 -2.53027 25.2964
rtibia 23.2187
rfoot -11.7737 -3.54307
rtoes -17.6899
lfemur -37.5999 0.617671 -26.7029
ltibia 29.9018
lfoot -6.40131 15.8766
ltoes 24.9213
704
root 11.3852 16.8853 -24.233 -170.702 -20.1723 -179.595
lowerback -2.64796 1.92853 -5.86565
upperback -4.15463 2.31916 -2.22774
thorax -2.96049 1.18826 0.983385
lowerneck -4.24252 11.699 8.24732
upperneck 12.8543 15.7584 -7.25076
head 5.8154 7.5423 -2.44238
rclavicle -4.00303e-014 5.56597e-015
rhumerus -48.0172 13.6821 -91.7024
rradius 54.4114
rwrist -7.8499
rhand -15.4297 -31.1339
rfingers 7.12502
rthumb 10.7503 -60.8389
lclavicle -4.00303e-014 5.56597e-015
lhumerus -47.1623 -12.4489 85.395
lradius 34.775
lwrist 17.3362
lhand -10.4529 -18.3947
lfingers 7.12502
lthumb 15.5475 11.0003
rfemur 4.75575 -3.75671 24.3039
rtibia 25.9994
rfoot -10.63 -2.38945
rtoes -18.7965
lfemur -37.2766 0.350005 -27.3655
ltibia 30.3212
lfoot -5.67615 15.5308
ltoes 23.572
705
root 11.3215 16.8769 -24.3593 -170.801 -20.5954 -179.895
lowerback -2.42723 1.82321 -6.18626
upperback -4.14203 2.15487 -2.33766
thorax -3.07284 1.11371 1.04164
lowerneck -3.93981 11.745 8.51256
upperneck 12.6523 15.8362 -7.4812
head 5.74807 7.58982 -2.5644
rclavicle 4.70871e-014 -7.07673e-014
rhumerus -48.1852 13.4625 -91.8967
rradius 53.7204
rwrist -7.17673
rhand -15.0944 -30.8229
rfingers 7.12502
rthumb 11.0737 -60.5107
lclavicle 4.70871e-014 -7.07673e-014
lhumerus -46.9054 -12.6686 85.314
lradius 34.7305
lwrist 17.3268
lhand -10.0477 -17.7791
lfingers 7.12502
lthumb 15.9377 11.5852
rfemur 3.95198 -4.9347 23.5368
rtibia 28.5622
rfoot -8.97746 -1.39366
rtoes -21.225
lfemur -36.9726 0.0141064 -27.8196
ltibia 30.9298
lfoot -5.59629 15.2792
ltoes 21.4035
706
root 11.2547 16.8652 -24.4833 -171.104 -21.1387 -179.941
lowerback -2.07537 1.66607 -6.26249
upperback -4.07678 1.93165 -2.27661
thorax -3.19354 1.01214 1.13963
lowerneck -3.74398 11.878 8.68103
upperneck 12.5447 16.0576 -7.86426
head 5.7457 7.68638 -2.69576
rclavicle 2.66309e-014 7.15625e-015
rhumerus -48.1802 13.4678 -91.9448
rradius 52.8495
rwrist -6.94329
rhand -14.6617 -30.5942
rfingers 7.12502
rthumb 11.4911 -60.2593
lclavicle 2.66309e-014 7.15625e-015
lhumerus -46.5521 -12.4845 85.2435
lradius 34.6427
lwrist 17.1643
lhand -9.99261 -17.7527
lfingers 7.12502
lthumb 15.9908 11.6073
rfemur 3.20538 -6.04883 22.9995
rtibia 31.1281
rfoot -7.09579 -0.460073
rtoes -23.4058
lfemur -36.4835 -0.703808 -27.8205
ltibia 31.5958
lfoot -6.4238 15.2391
ltoes 21.6187
707
root 11.184 16.8569 -24.6037 -171.53 -21.6511 -179.604
lowerback -1.73351 1.58706 -5.86957
upperback -4.05507 1.81901 -2.16906
thorax -3.34239 0.955937 1.02488
lowerneck -3.41233 12.0527 8.93842
upperneck 12.4531 16.3365 -8.25859
head 5.74045 7.81698 -2.84511
rclavicle -2.15107e-014 4.05521e-014
rhumerus -48.4292 13.2587 -91.9934
rradius 52.3041
rwrist -7.09454
rhand -15.3158 -30.8047
rfingers 7.12502
rthumb 10.8602 -60.5038
lclavicle -2.15107e-014 4.05521e-014
lhumerus -46.2608 -12.3694 85.1933
lradius 34.6132
lwrist 17.0049
lhand -9.65406 -17.3574
lfingers 7.12502
lthumb 16.3168 11.9762
rfemur 2.34251 -6.96476 22.7917
rtibia 33.7498
rfoot -4.90139 0.477181
rtoes -21.5972
lfemur -36.0323 -1.36363 -27.4556
ltibia 32.2457
lfoot -7.10523 15.3669
ltoes 21.8922
